<svg xmlns="http://www.w3.org/2000/svg" version="1.1" viewBox="-5.0 -10.0 110.0 135.0">
 <path d="m15.398 70.883c2.1055 1.2109 33.84 19.539 33.84 19.539 0.46875 0.26953 1.0508 0.26953 1.5195 0 0 0 29.004-16.758 33.84-19.539 0.38281-0.21875 0.76172-0.75781 0.76172-1.3164v-39.074c0-0.63672-0.28906-1.043-0.76172-1.3164-0.92969-0.53516-32.414-18.711-33.84-19.539-0.65234-0.37891-0.96094-0.32031-1.5195 0-1.3711 0.78516-32.867 18.973-33.84 19.539-0.5625 0.32422-0.76172 0.83594-0.76172 1.3164v39.074c0 0.53516 0.35938 1.0859 0.76172 1.3164zm33.082 15.59-25.996-15.008 25.996 1.543zm-30.039-18.293 12.141-27.195 16.688 28.906-28.832-1.7109zm31.559 0.35547-16.957-29.371h33.914zm1.5195 17.934v-13.465l25.992-1.543zm1.207-16.582 16.688-28.906 12.141 27.195-28.832 1.7109zm29.594-36.938v29.48l-10.75-24.082zm-1.6797-2.5586-10.586 5.3164-14.551-19.824 25.133 14.512zm-30.641-16.875 16.59 22.605h-33.18zm-5.5039 2.3633-14.551 19.824-10.586-5.3125zm-26.816 17.066 10.75 5.3984-10.75 24.082z"/>
<text x="0.0" y="117.5" font-size="5.0" font-weight="bold" font-family="Arbeit Regular, Helvetica, Arial-Unicode, Arial, Sans-serif" fill="#000000">Created by Sanjaya</text><text x="0.0" y="122.5" font-size="5.0" font-weight="bold" font-family="Arbeit Regular, Helvetica, Arial-Unicode, Arial, Sans-serif" fill="#000000">from Noun Project</text></svg>