<svg xmlns="http://www.w3.org/2000/svg">
  <defs>
    <symbol id="icon-d20" viewBox="-5.0 -10.0 110.0 135.0">
        <path d="m15.398 70.883c2.1055 1.2109 33.84 19.539 33.84 19.539 0.46875 0.26953 1.0508 0.26953 1.5195 0 0 0 29.004-16.758 33.84-19.539 0.38281-0.21875 0.76172-0.75781 0.76172-1.3164v-39.074c0-0.63672-0.28906-1.043-0.76172-1.3164-0.92969-0.53516-32.414-18.711-33.84-19.539-0.65234-0.37891-0.96094-0.32031-1.5195 0-1.3711 0.78516-32.867 18.973-33.84 19.539-0.5625 0.32422-0.76172 0.83594-0.76172 1.3164v39.074c0 0.53516 0.35938 1.0859 0.76172 1.3164zm33.082 15.59-25.996-15.008 25.996 1.543zm-30.039-18.293 12.141-27.195 16.688 28.906-28.832-1.7109zm31.559 0.35547-16.957-29.371h33.914zm1.5195 17.934v-13.465l25.992-1.543zm1.207-16.582 16.688-28.906 12.141 27.195-28.832 1.7109zm29.594-36.938v29.48l-10.75-24.082zm-1.6797-2.5586-10.586 5.3164-14.551-19.824 25.133 14.512zm-30.641-16.875 16.59 22.605h-33.18zm-5.5039 2.3633-14.551 19.824-10.586-5.3125zm-26.816 17.066 10.75 5.3984-10.75 24.082z"/>
    </symbol>
    <symbol id="icon-wizard" viewBox="-5.0 -10.0 110.0 135.0">
        <path d="m67.188 30.078h-35.156c-2.0508 0-3.5469-1.9453-3.0195-3.9297l2.7617-10.395c0.53906-2.0234 1.6875-3.7891 3.3203-5.1016l7.0234-5.6484c1.1953-0.96094 2.6172-1.6328 4.1133-1.9453l13.586-2.8477c1.2891-0.26953 1.5039-0.21094 8.1719-0.21094 3.5234 0 6.7891 1.9102 8.5156 4.9844l6.1055 10.867c0.60156 1.0703 0.51953 2.3945-0.21094 3.3828-0.72656 0.98828-1.9688 1.4609-3.1719 1.2031l-8.8984-1.9062-1.5156 2.1914 1.4023 5.4531c0.50781 1.9766-0.98438 3.9023-3.0273 3.9023zm-31.094-6.25h27.062l-0.50781-1.9844c-0.38281-1.4844-0.10156-3.0547 0.77344-4.3125l2.1406-3.0938c1.2188-1.7578 3.3516-2.6016 5.4414-2.1562l2.7656 0.59375-2.7148-4.832c-0.62109-1.1094-1.7969-1.7969-3.0625-1.7969-6.6289 0-6.3906-0.03125-6.8906 0.074218l-13.586 2.8516c-0.53906 0.11328-1.0508 0.35547-1.4805 0.70312l-7.0234 5.6484c-0.58594 0.47266-1 1.1094-1.1953 1.8359l-1.7188 6.4688z"/>
        <path d="m76.953 38.867h-53.906c-1.2734 0-2.4219-0.77344-2.8984-1.9609-0.47656-1.1836-0.18359-2.5391 0.73828-3.4219l9.1797-8.7891c1.2461-1.1953 3.2266-1.1484 4.418 0.09375 1.1953 1.2461 1.1484 3.2266-0.09375 4.418l-3.5586 3.4062h37.98l-3.7148-3.3438c-1.2812-1.1562-1.3867-3.1328-0.23438-4.4141 1.1562-1.2812 3.1328-1.3867 4.4141-0.23438l9.7656 8.7891c0.96094 0.86719 1.2891 2.2344 0.82812 3.4414-0.46484 1.207-1.625 2.0078-2.918 2.0078z"/>
        <path d="m37.289 58.316c-1.1719 0-2.2969-0.66406-2.8281-1.7891-1.2109-2.5625-1.8477-5.4141-1.8438-8.25 0.003906-5.75 0.003906-12.535 0.003906-12.535 0-1.5 1.0625-2.7852 2.5352-3.0703l0.15234-0.03125c2.3516-0.45312 4.2891 1.8008 3.5625 4.0352 0 2.0547 0 7.1406-0.003906 11.602 0 1.9141 0.42969 3.8438 1.25 5.5781 0.98437 2.0898-0.55859 4.4609-2.8242 4.4609z"/>
        <path d="m62.711 58.316c-2.2656 0-3.8125-2.3711-2.8242-4.4609 0.82031-1.7305 1.25-3.6602 1.25-5.5781-0.003907-4.4609-0.003907-9.5469-0.003907-11.602-0.72656-2.2305 1.207-4.4883 3.5625-4.0352l0.15234 0.03125c1.4688 0.28125 2.5352 1.5703 2.5352 3.0703 0 0 0 6.7812 0.003907 12.535 0 2.8359-0.63672 5.6875-1.8438 8.25-0.53125 1.1289-1.6562 1.7891-2.8281 1.7891z"/>
        <path d="m88.672 100h-77.344c-1.7266 0-3.125-1.3984-3.125-3.125v-13.406c0-7.8438 5.8672-14.508 13.648-15.496l16.652-2.1211c1.7109-0.21875 3.2773 0.99219 3.4922 2.7031 0.21875 1.7109-0.99219 3.2773-2.7031 3.4922l-16.652 2.1211c-4.668 0.59375-8.1875 4.5938-8.1875 9.2969v10.281h71.094v-10.281c0-4.707-3.5234-8.7031-8.1875-9.2969l-15.281-1.9492c-1.7109-0.21875-2.9219-1.7852-2.7031-3.4922 0.21875-1.7109 1.7852-2.9219 3.4922-2.7031l15.281 1.9492c7.7812 0.99219 13.648 7.6562 13.648 15.496v13.406c0 1.7266-1.3984 3.125-3.125 3.125z"/>
        <path d="m27.539 100c-1.7266 0-3.125-1.3984-3.125-3.125v-10.547c0-1.7266 1.3984-3.125 3.125-3.125 1.7266 0 3.125 1.3984 3.125 3.125v10.547c0 1.7266-1.3984 3.125-3.125 3.125z"/>
        <path d="m72.461 100c-1.7266 0-3.125-1.3984-3.125-3.125v-10.547c0-1.7266 1.3984-3.125 3.125-3.125 1.7266 0 3.125 1.3984 3.125 3.125v10.547c0 1.7266-1.3984 3.125-3.125 3.125z"/>
        <path d="m64.844 66.406h-5.4688c-1.957 0-3.8789-0.52344-5.5547-1.5156-1.4844-0.875-1.9805-2.7969-1.1016-4.2812s2.7969-1.9805 4.2812-1.1016c0.71484 0.42188 1.5391 0.64844 2.375 0.64844h2.3281c-0.19922-2.4023-2.2188-4.2969-4.6719-4.2969h-0.40234c-1.4492 0-2.8828 0.48438-4.0312 1.3672l-0.69531 0.53125c-1.1211 0.85547-2.6758 0.85547-3.7969 0l-0.69531-0.53125c-1.1523-0.88281-2.5859-1.3672-4.0312-1.3672h-0.40234c-2.4531 0-4.4727 1.8945-4.6719 4.2969h2.3281c0.83984 0 1.6602-0.22266 2.375-0.64844 1.4844-0.875 3.4023-0.38281 4.2812 1.1016 0.875 1.4844 0.38281 3.4023-1.1016 4.2812-1.6797 0.99219-3.5977 1.5156-5.5547 1.5156h-5.4688c-1.7266 0-3.125-1.3984-3.125-3.125v-2.7344c0-6.0312 4.9062-10.938 10.938-10.938h0.40234c2.3281 0 4.6328 0.64453 6.625 1.8359 1.9922-1.1914 4.2969-1.8359 6.625-1.8359h0.40234c6.0312 0 10.938 4.9062 10.938 10.938v2.7344c0 1.7266-1.3984 3.125-3.125 3.125z"/>
        <path d="m50.391 91.016c-12.41 0-15.789-6.7422-16.133-7.5117-0.98828-2.207 0.80469-4.6562 3.2109-4.3828 1.9492 0.22266 2.8594-0.085938 3.0703-0.28125 0.054688-0.054688 0.10547-0.26562 0.09375-0.57812-0.085937-1.9258-6.793-6.3555-5.0469-15.562 0.32031-1.6953 1.957-2.8125 3.6523-2.4883 1.6953 0.32031 2.8125 1.957 2.4883 3.6523-0.23437 1.2266-0.35156 3.0547 0.40625 4.8281 1.582 3.6914 4.5625 5.2461 4.7422 9.2969 0.10156 2.3203-0.75391 4.4844-2.6289 5.8867 1.5156 0.51562 3.5195 0.89062 6.1484 0.89062 3.2852 0 5.5469-1.5469 7.1094-4.8672 1.9219-4.0859 2.6172-11.047 0.89062-15.48-0.625-1.6094 0.17188-3.4219 1.7812-4.0469s3.4219 0.17188 4.0469 1.7812c0.64062 1.6523 1.4102 4.4102 1.4102 8.1641 0 2.1016-0.24219 7.5-2.4688 12.242-2.6016 5.5352-7.0156 8.4609-12.762 8.4609z"/>
        <path d="m47.852 43.75c0 4.168-6.25 4.168-6.25 0s6.25-4.168 6.25 0"/>
        <path d="m58.398 43.75c0 4.168-6.25 4.168-6.25 0s6.25-4.168 6.25 0"/>
        <path d="m19.578 73.227c-4.3945-4.8203-5.4336-11.148-5.4766-11.414-0.39062-2.4844 2.1719-4.3984 4.4492-3.2969 1.5312 0.74219 2.0547 0.38281 2.25 0.25 1.2852-0.87891 2.8281-4.4844 3.293-11.961 0.34766-5.582-0.054688-10.762-0.0625-10.812-0.13672-1.7188 1.1484-3.2266 2.8672-3.3633 1.7188-0.13672 3.2266 1.1445 3.3633 2.8672 0.015625 0.22656 0.44141 5.6172 0.070312 11.629-0.42188 6.8633-1.918 16.547-8.6836 17.953 0.59375 1.2969 1.418 2.707 2.5469 3.9453 1.1641 1.2734 1.0703 3.25-0.20312 4.4141-1.2773 1.1641-3.2539 1.0703-4.4141-0.20312z"/>
    </symbol>
  </defs>
</svg>